<?xml version="1.0" encoding="utf-8"?>
<!-- Generator: Adobe Illustrator 26.0.1, SVG Export Plug-In . SVG Version: 6.00 Build 0)  -->
<svg version="1.1" id="Layer_1" xmlns="http://www.w3.org/2000/svg" xmlns:xlink="http://www.w3.org/1999/xlink" x="0px" y="0px"
	 viewBox="0 0 4000 4000" style="enable-background:new 0 0 4000 4000;" xml:space="preserve">
<style type="text/css">
	.st0{fill:#ED1C24;}
	.st1{fill:#FFFFFF;}
	.st2{fill:#BE1726;}
</style>
<g>
	<g>
		<polygon class="st0" points="3122,877.9 3122,2160.3 2801.4,2160.3 2801.4,2480.9 2480.8,2480.9 2480.8,2801.5 2160.2,2801.5 
			2160.2,3122.1 1839.6,3122.1 1839.6,2801.5 1519.1,2801.5 1519.1,2480.9 1198.5,2480.9 1198.5,2160.3 877.9,2160.3 877.9,1519.1 
			1198.5,1519.1 1198.5,877.9 1519.1,877.9 1519.1,1198.5 1839.6,1198.5 1839.6,1519.1 2160.2,1519.1 2160.2,1198.5 2480.8,1198.5 
			2480.8,877.9 		"/>
		<rect x="877.9" y="877.9" class="st1" width="320.6" height="641.2"/>
		<g>
			<rect x="236.8" y="877.9" width="320.6" height="1282.4"/>
			<rect x="1839.6" y="3442.6" width="320.6" height="320.6"/>
			<rect x="1519.1" y="3122.1" width="320.6" height="320.6"/>
			<rect x="2160.2" y="3122.1" width="320.6" height="320.6"/>
			<rect x="2480.8" y="2801.5" width="320.6" height="320.6"/>
			<rect x="2801.4" y="2480.9" width="320.6" height="320.6"/>
			<rect x="3122" y="2160.3" width="320.6" height="320.6"/>
			<rect x="3442.6" y="877.9" width="320.6" height="1282.4"/>
			<rect x="1519.1" y="557.4" width="320.6" height="320.6"/>
			<rect x="2160.2" y="557.4" width="320.6" height="320.6"/>
			<rect x="2480.8" y="236.8" width="641.2" height="320.6"/>
			<rect x="3122" y="557.4" width="320.6" height="320.6"/>
			<rect x="1839.6" y="877.9" width="320.6" height="320.6"/>
			<rect x="877.9" y="236.8" width="641.2" height="320.6"/>
			<rect x="557.4" y="557.4" width="320.5" height="320.6"/>
			<rect x="557.4" y="2160.3" width="320.5" height="320.6"/>
			<rect x="1198.5" y="2801.5" width="320.6" height="320.6"/>
			<rect x="877.9" y="2480.9" width="320.6" height="320.6"/>
		</g>
		<g>
			<rect x="1839.6" y="3122.1" class="st2" width="320.6" height="320.6"/>
			<rect x="877.9" y="2160.3" class="st2" width="320.6" height="320.6"/>
			<rect x="557.4" y="877.9" class="st2" width="320.5" height="1282.4"/>
			<rect x="877.9" y="557.4" class="st2" width="641.2" height="320.6"/>
			<rect x="1519.1" y="2801.5" class="st2" width="320.6" height="320.6"/>
			<rect x="2160.2" y="2801.5" class="st2" width="320.6" height="320.6"/>
			<rect x="2480.8" y="2480.9" class="st2" width="320.6" height="320.6"/>
			<rect x="2801.4" y="2160.3" class="st2" width="320.6" height="320.6"/>
			<rect x="3122" y="877.9" class="st2" width="320.6" height="1282.4"/>
			<rect x="2480.8" y="557.4" class="st2" width="641.2" height="320.6"/>
			<rect x="1519.1" y="877.9" class="st2" width="320.6" height="320.6"/>
			<rect x="1839.6" y="1198.5" class="st2" width="320.6" height="320.6"/>
			<rect x="2160.2" y="877.9" class="st2" width="320.6" height="320.6"/>
			<rect x="1198.5" y="2480.9" class="st2" width="320.6" height="320.6"/>
		</g>
	</g>
</g>
</svg>
